<?xml version="1.0" encoding="UTF-8"?><svg id="Warstwa_1" xmlns="http://www.w3.org/2000/svg" xmlns:xlink="http://www.w3.org/1999/xlink" viewBox="0 0 408.25 191.34"><defs><style>.cls-1{fill:url(#Gradient_bez_nazwy_10);stroke:url(#Gradient_bez_nazwy_20);}.cls-1,.cls-2,.cls-3,.cls-4{stroke-miterlimit:10;stroke-width:4px;}.cls-5,.cls-6,.cls-7{stroke-width:0px;}.cls-6{fill:none;}.cls-2{fill:url(#Gradient_bez_nazwy_141);stroke:url(#Gradient_bez_nazwy_155);}.cls-3{fill:url(#Gradient_bez_nazwy_18);stroke:url(#Gradient_bez_nazwy_123);}.cls-7{fill:#aa3700;}.cls-4{fill:url(#Gradient_bez_nazwy_8);stroke:url(#Gradient_bez_nazwy_9);}</style><linearGradient id="Gradient_bez_nazwy_10" x1="310.38" y1="38.72" x2="342.88" y2="38.72" gradientUnits="userSpaceOnUse"><stop offset="0" stop-color="#fff"/><stop offset="1" stop-color="#000"/></linearGradient><linearGradient id="Gradient_bez_nazwy_20" x1="310.37" y1="38.72" x2="342.9" y2="38.72" gradientUnits="userSpaceOnUse"><stop offset="0" stop-color="#fff"/><stop offset=".01" stop-color="#f7f7f7"/><stop offset=".09" stop-color="#c3c3c3"/><stop offset=".17" stop-color="#959595"/><stop offset=".26" stop-color="#6d6d6d"/><stop offset=".35" stop-color="#4b4b4b"/><stop offset=".44" stop-color="#2f2f2f"/><stop offset=".55" stop-color="#1a1a1a"/><stop offset=".66" stop-color="#0b0b0b"/><stop offset=".8" stop-color="#020202"/><stop offset="1" stop-color="#000"/></linearGradient><linearGradient id="Gradient_bez_nazwy_18" x1="215.24" y1="38.79" x2="294.61" y2="38.79" gradientUnits="userSpaceOnUse"><stop offset="0" stop-color="#fff"/><stop offset="0" stop-color="#d34f29"/><stop offset="1" stop-color="#fff"/><stop offset="1" stop-color="#fefaf9"/></linearGradient><linearGradient id="Gradient_bez_nazwy_123" x1="215.23" y1="38.79" x2="294.62" y2="38.79" gradientUnits="userSpaceOnUse"><stop offset="0" stop-color="#fff"/><stop offset="0" stop-color="#d34f29"/><stop offset="1" stop-color="#fff"/><stop offset="1" stop-color="#fefaf9"/></linearGradient><linearGradient id="Gradient_bez_nazwy_8" x1="300.14" y1="60.44" x2="342.88" y2="60.44" gradientUnits="userSpaceOnUse"><stop offset="0" stop-color="#fff"/><stop offset="1" stop-color="#000"/></linearGradient><linearGradient id="Gradient_bez_nazwy_9" x1="300.13" y1="60.44" x2="342.88" y2="60.44" gradientUnits="userSpaceOnUse"><stop offset="0" stop-color="#fff"/><stop offset="1" stop-color="#000"/></linearGradient><linearGradient id="Gradient_bez_nazwy_141" x1="215.24" y1="60.45" x2="283" y2="60.45" gradientUnits="userSpaceOnUse"><stop offset="0" stop-color="#d34f29"/><stop offset="0" stop-color="#fff"/><stop offset="1" stop-color="#fff"/><stop offset="1" stop-color="#fefaf9"/></linearGradient><linearGradient id="Gradient_bez_nazwy_155" x1="215.24" y1="60.45" x2="283" y2="60.45" gradientUnits="userSpaceOnUse"><stop offset="0" stop-color="#fff"/><stop offset="0" stop-color="#d55632"/><stop offset=".19" stop-color="#d34f29"/><stop offset="1" stop-color="#fff"/><stop offset="1" stop-color="#d34f2a"/><stop offset="1" stop-color="#d55733"/><stop offset="1" stop-color="#fefaf9"/><stop offset="1" stop-color="#fefbfa"/></linearGradient></defs><path class="cls-7" d="M327.9,44.54h-2.69v-1.9h7.72v1.9h-2.69v11.74h-2.33v-11.74Z"/><path class="cls-5" d="M220.69,49.7c-1.24-.9-2.21-2.21-2.21-3.96v-.68c0-2.31,1.2-4.01,3.91-4.01s3.96,1.7,3.96,4.01v1.03h-1.84v-.98c0-1.35-.53-2.28-2.12-2.28s-2.12.9-2.12,2.28v.43c0,1.3.58,2.01,1.59,2.71l2.42,1.73c1.29.93,2.16,2.06,2.16,3.74v.78c-.02,2.28-1.36,3.96-4.05,3.96s-4.03-1.7-4.03-4.01v-1.15h1.82v1.1c0,1.38.62,2.28,2.21,2.28s2.23-.9,2.23-2.28v-.33c-.02-1.3-.48-1.91-1.52-2.66l-2.42-1.71Z"/><path class="cls-5" d="M236.23,51.53v.08h-5.87v2.88c0,1.35.6,2.21,2.07,2.21s2.07-.85,2.07-2.21v-.95h1.77v.93c0,2.38-1.29,3.99-3.84,3.99s-3.85-1.6-3.85-3.99v-6.84c0-2.38,1.29-3.99,3.85-3.99s3.84,1.6,3.84,3.99v3.91h-.05ZM230.36,49.98h4.14v-2.38c0-1.35-.6-2.21-2.07-2.21s-2.07.85-2.07,2.21v2.38Z"/><path class="cls-5" d="M241.8,58.35c-2.23,0-3.34-1.28-3.34-3.43v-.73c0-1.7.85-2.78,2.72-3.46l3.27-1.13v-2.16c0-1.35-.55-2.06-2.05-2.06s-2,.7-2,2.06v.83h-1.8v-.83c0-2.36,1.22-3.81,3.8-3.81s3.82,1.45,3.82,3.81v10.75h-1.75v-1.5c-.28.83-1.1,1.65-2.67,1.65ZM242.15,56.72c1.7,0,2.3-1,2.3-2.21v-3.18l-2.56.85c-1.24.43-1.66,1.03-1.66,2.03v.6c0,1.18.55,1.91,1.91,1.91Z"/><path class="cls-5" d="M253.86,45.82c-.25-.08-.53-.1-.92-.1-1.08,0-2,.93-2,2.36v10.13h-1.8v-14.31h1.73v1.83c.16-.8.92-1.91,2.53-1.91.16,0,.32,0,.46.02v1.98Z"/><path class="cls-5" d="M261.09,54.46v-1.05h1.8v1.05c0,2.38-1.27,3.99-3.82,3.99s-3.82-1.6-3.82-3.99v-6.84c0-2.38,1.27-3.99,3.82-3.99s3.82,1.6,3.82,3.99v1.13h-1.8v-1.13c0-1.35-.55-2.23-2.03-2.23s-2.03.88-2.03,2.23v6.84c0,1.35.58,2.23,2.03,2.23s2.03-.88,2.03-2.23Z"/><path class="cls-5" d="M265.56,58.2v-18.13h1.8v5.34c.18-.5.94-1.55,2.65-1.55,1.96,0,3.08,1.38,3.08,3.56v10.78h-1.8v-10.5c0-1.38-.62-2.11-1.87-2.11-1.08,0-2.07.7-2.07,2.03v10.58h-1.8Z"/><rect class="cls-5" x="280.24" y="43.69" width="3.46" height="2.41"/><path class="cls-7" d="M318.12,56.32v-13.64h2.33v13.64h-2.33Z"/><path class="cls-6" d="M310.01,40.5c9.14-.03,18.28,0,27.42.07"/><path class="cls-6" d="M297.75,40.57c.68,0,1.37-.01,2.05-.02"/><path class="cls-6" d="M239.77,40.57c18.43-.11,36.8-.11,55.06,0"/><path class="cls-5" d="M217.1,65.69l-4.02,3.79-24.76-19.33,24.76-19.33,4.02,3.83-20.08,15.44,20.08,15.61Z"/><path class="cls-5" d="M360.7,49.6l-20.08-15.44,4.02-3.83,24.76,19.33-24.76,19.33-4.02-3.79,20.08-15.61Z"/><rect class="cls-5" x="280.24" y="54.91" width="3.46" height="2.41"/><path class="cls-5" d="M312,23.65l-22.45,49.83h-5.43l22.45-49.83h5.43Z"/><path class="cls-1" d="M310.38,38.68c10.83-.06,21.67-.03,32.5.1"/><path class="cls-3" d="M215.24,38.85c26.55-.18,52.86-.18,79.37,0"/><path class="cls-4" d="M300.14,60.44c14.25,0,28.5,0,42.74,0"/><path class="cls-2" d="M215.24,60.46c22.79-.02,45.13-.02,67.76,0"/></svg>