<?xml version="1.0" encoding="UTF-8"?>
<svg xmlns="http://www.w3.org/2000/svg" version="1.1" viewBox="0 0 468 222.52">
  <defs>
    <style>
      .cls-1 {
        fill-rule: evenodd;
      }

      .cls-1, .cls-2 {
        fill: #ed0a0a;
      }
    </style>
  </defs>
  <!-- Generator: Adobe Illustrator 28.6.0, SVG Export Plug-In . SVG Version: 1.2.0 Build 709)  -->
  <g>
    <g id="Layer_1">
      <g id="Stripe">
        <path class="cls-1" d="M414,113.38c0-25.58-12.38-45.76-36.1-45.76s-38.21,20.2-38.21,45.63c0,30.11,17.04,45.35,41.36,45.35,11.94,0,20.9-2.72,27.68-6.47v-20.12c-6.81,3.44-14.61,5.53-24.53,5.53s-18.31-3.45-19.42-15.15h48.88c.11-1.35.34-6.58.34-9ZM364.56,103.94c0-11.25,6.94-15.96,13.18-15.96s12.63,4.72,12.63,15.96h-25.81Z"/>
        <path class="cls-1" d="M301.08,67.62c-9.79,0-16.11,4.61-19.56,7.83l-1.3-6.17h-21.99v116.57s24.98-5.31,24.98-5.31l.05-28.26c3.59,2.63,8.93,6.32,17.67,6.32,17.87,0,34.21-14.38,34.21-46.11,0-29.07-16.52-44.87-34.05-44.87ZM295.11,136.53c-5.86,0-9.35-2.11-11.78-4.74l-.15-37.11c2.6-2.85,6.19-4.95,11.93-4.95,9.14,0,15.43,10.24,15.43,23.3s-6.19,23.49-15.43,23.49Z"/>
        <polygon class="cls-1" points="223.8 61.67 248.87 56.34 248.87 36.01 223.8 41.33 223.8 61.67"/>
        <rect class="cls-2" x="223.8" y="69.28" width="25.07" height="87.53"/>
        <path class="cls-1" d="M196.94,76.66l-1.57-7.38h-21.59v87.53h24.96v-59.34c5.9-7.75,15.86-6.26,19.04-5.23v-22.95c-3.33-1.2-15-3.37-20.84,7.37Z"/>
        <path class="cls-1" d="M146.87,47.6l-24.38,5.18-.11,80.12c0,14.78,11.12,25.7,25.94,25.7,8.16,0,14.19-1.48,17.53-3.31v-20.33c-3.2,1.28-18.96,5.86-18.96-8.86v-35.53h18.97v-21.3h-18.97l-.02-21.68Z"/>
        <path class="cls-1" d="M79.26,94.69c0-3.9,3.25-5.41,8.48-5.41,7.6,0,17.24,2.33,24.84,6.43v-23.52c-8.27-3.3-16.54-4.57-24.81-4.57-20.26,0-33.76,10.58-33.76,28.26,0,27.65,37.96,23.16,37.96,35.08,0,4.61-4.01,6.11-9.58,6.11-8.27,0-18.95-3.42-27.33-7.97v23.84c9.28,3.99,18.7,5.67,27.3,5.67,20.76,0,35.07-10.26,35.07-28.23,0-29.77-38.17-24.43-38.17-35.67Z"/>
      </g>
    </g>
  </g>
</svg>